<svg xmlns="http://www.w3.org/2000/svg" width="16" height="16" fill="#fff" class="bi bi-pizza" viewBox="0 0 16 16">
  <path d="M8 0a8 8 0 1 0 0 16A8 8 0 0 0 8 0zM8 1a7 7 0 1 1 0 14A7 7 0 0 1 8 1zm0 2c-.598 0-1.125.33-1.404.856l-.208.548a.5.5 0 0 0 .949.316l.192-.5a.502.502 0 0 0-.238-.644A2.99 2.99 0 0 1 8 3zm-4.44 3.294a.5.5 0 0 0-.192.68l1.366 2.684-3.68 1.227a.5.5 0 0 0-.316.948l.5.192a.5.5 0 0 0 .68-.192L7 6.92l2.08 2.08a.5.5 0 0 0 .76-.642l-.067-.08L8.08 6.08l.308-.433a.5.5 0 0 0-.683-.684L7 5.308 5.763 3.767a.5.5 0 0 0-.763.64l.067.08L7.92 6.92 5.84 4.84a.5.5 0 0 0-.84-.058l-.08.107L2.215 9.654a.5.5 0 1 0 .683.684L7 5.308l.75.75a.5.5 0 0 0 .648.067l.08-.067 2.718-2.718a.5.5 0 0 0-.762-.64l-.08.067L8 3.08 4.44 6.294z"/>
</svg>
